<?xml version="1.0" standalone="no"?>
<!DOCTYPE svg PUBLIC "-//W3C//DTD SVG 20010904//EN"
 "http://www.w3.org/TR/2001/REC-SVG-20010904/DTD/svg10.dtd">
<svg version="1.0" xmlns="http://www.w3.org/2000/svg"
 width="192.000000pt" height="192.000000pt" viewBox="0 0 192.000000 192.000000"
 preserveAspectRatio="xMidYMid meet">
<metadata>
Created by potrace 1.14, written by Peter Selinger 2001-2017
</metadata>
<g transform="translate(0.000000,192.000000) scale(0.100000,-0.100000)"
fill="#000000" stroke="none">
<path d="M886 1842 c-3 -5 1 -9 9 -9 8 0 12 4 9 9 -3 4 -7 8 -9 8 -2 0 -6 -4
-9 -8z"/>
<path d="M931 1816 c-7 -8 -8 -17 -3 -20 6 -3 15 1 21 8 7 8 8 17 3 20 -6 3
-15 -1 -21 -8z"/>
<path d="M990 1819 c0 -5 -5 -7 -12 -3 -7 4 -8 3 -4 -4 4 -6 13 -9 21 -5 17 6
20 23 5 23 -5 0 -10 -5 -10 -11z"/>
<path d="M1016 1814 c-8 -20 2 -36 16 -28 7 4 8 2 4 -4 -4 -7 -2 -12 3 -12 6
0 11 5 11 10 0 6 5 10 11 10 5 0 7 -5 3 -11 -5 -8 -1 -8 14 0 16 8 21 7 26 -4
3 -8 1 -15 -4 -15 -5 0 -7 -7 -4 -15 4 -8 11 -12 17 -8 6 3 7 1 3 -6 -6 -8
-15 -5 -33 13 -13 14 -30 23 -38 20 -7 -3 -16 0 -20 5 -3 6 -11 9 -16 5 -5 -3
-8 0 -7 6 2 7 -7 14 -20 16 -13 2 -21 0 -18 -5 3 -5 -2 -8 -12 -7 -11 1 -16
-5 -14 -17 3 -17 2 -17 -17 0 -26 21 -26 24 -3 16 9 -3 14 -3 11 1 -4 4 -16 8
-28 11 -17 3 -19 1 -12 -13 6 -12 4 -24 -5 -37 -14 -19 -15 -19 -10 7 4 23 2
27 -12 20 -25 -11 -57 -9 -57 5 0 6 -3 14 -7 18 -8 9 -5 -16 5 -32 4 -7 -2
-18 -15 -27 -18 -13 -20 -18 -9 -28 11 -11 12 -10 6 1 -6 10 -4 12 5 6 9 -5
11 -4 6 4 -5 7 -2 10 6 9 7 -2 12 3 10 11 -2 9 3 11 13 7 9 -3 14 -2 11 2 -3
5 1 9 8 9 7 0 13 -6 13 -13 0 -7 -3 -11 -7 -9 -10 6 -51 -25 -46 -34 7 -11
-27 -10 -40 1 -8 5 -17 3 -27 -6 -8 -8 -18 -12 -23 -8 -5 4 -2 -1 5 -11 8 -9
15 -28 16 -42 3 -21 1 -23 -20 -13 -14 6 -21 16 -18 24 3 8 9 11 14 8 5 -3 7
-10 4 -15 -4 -5 -1 -9 4 -9 18 0 12 15 -16 41 -15 13 -22 17 -16 9 7 -10 8
-21 3 -30 -5 -8 -6 -18 -3 -24 4 -5 -1 -7 -11 -3 -9 4 -14 3 -11 -2 7 -12 -31
-24 -46 -15 -7 4 -9 3 -6 -3 4 -6 23 -11 42 -10 19 1 30 4 24 8 -7 4 -5 8 5
12 8 3 18 1 22 -5 8 -13 -16 -30 -34 -23 -9 3 -11 -3 -7 -23 4 -20 3 -22 -3
-8 -5 11 -16 20 -25 22 -15 2 -15 -1 3 -23 29 -38 24 -48 -7 -15 -16 15 -25
23 -20 18 13 -18 8 -24 -15 -20 -19 4 -20 3 -5 -4 22 -9 24 -22 5 -33 -22 -15
-31 -10 -17 9 13 15 12 16 -3 3 -10 -7 -16 -17 -13 -21 3 -4 -7 -15 -21 -25
-14 -9 -23 -19 -20 -22 11 -11 -15 -32 -32 -26 -13 4 -12 2 3 -10 11 -9 25
-16 30 -17 6 0 3 5 -5 11 -13 9 -12 10 2 5 13 -4 15 -1 11 11 -5 12 -3 14 7 8
9 -6 11 -4 5 4 -6 10 -3 11 14 2 11 -7 20 -19 20 -29 -1 -16 -2 -16 -6 1 -6
22 -11 22 -33 -5 -17 -20 -21 -21 -40 -10 -12 8 -19 9 -15 3 3 -6 1 -12 -4
-12 -6 -1 -17 -2 -23 -3 -7 -1 -12 -7 -10 -14 3 -17 -9 -15 -25 6 -13 15 -13
14 -2 -7 10 -21 9 -23 -5 -18 -10 4 -14 3 -11 -2 3 -5 1 -12 -5 -16 -14 -9
-12 -28 3 -22 6 2 11 10 9 16 -3 16 5 14 27 -8 17 -17 17 -18 0 -30 -26 -15
-37 -14 -14 2 12 10 14 16 7 21 -7 4 -12 2 -12 -3 0 -6 -12 -11 -26 -11 -16 0
-23 4 -18 12 5 7 3 8 -6 3 -10 -6 -12 -4 -7 9 4 9 3 15 -2 11 -5 -3 -11 0 -13
7 -3 7 -7 5 -11 -6 -4 -9 -3 -15 2 -12 9 6 26 -22 22 -37 -1 -5 2 -6 7 -3 4 2
14 0 22 -6 13 -8 12 -9 -2 -5 -17 6 -53 -25 -42 -36 3 -3 -7 -2 -22 2 -16 5
-28 13 -27 18 1 5 -4 10 -11 10 -7 0 -13 -6 -13 -13 0 -7 4 -11 9 -8 4 3 8 1
8 -4 0 -17 -13 -22 -28 -9 -13 9 -14 9 -8 0 4 -7 3 -13 -3 -13 -5 0 -13 -9
-16 -20 -4 -11 -11 -18 -16 -15 -5 4 -6 -2 -2 -12 3 -10 3 -15 -2 -11 -9 8
-50 -11 -41 -19 3 -3 1 -14 -5 -25 -8 -15 -14 -17 -24 -8 -10 8 -15 8 -21 -1
-4 -8 -3 -9 5 -5 6 4 14 0 17 -9 6 -14 7 -14 18 0 10 14 13 14 31 0 19 -16 19
-16 -2 -5 -24 11 -26 7 -26 -52 0 -10 -3 -18 -7 -18 -14 0 -19 27 -7 39 8 8 8
11 -1 11 -7 0 -13 -4 -13 -10 -1 -5 -2 -16 -3 -22 -1 -7 1 -17 4 -23 3 -5 5
-16 4 -22 -1 -7 -2 -18 -3 -25 0 -6 -8 -3 -16 8 -14 18 -14 18 -10 -5 3 -14
-1 -31 -8 -40 -9 -11 -9 -13 0 -8 6 4 15 2 19 -4 4 -7 3 -9 -4 -5 -7 4 -10 -1
-9 -14 1 -20 17 -29 17 -10 0 6 5 10 11 10 8 0 8 -4 0 -14 -10 -11 -8 -17 6
-26 15 -10 15 -11 1 -6 -9 3 -19 2 -21 -2 -2 -4 -3 -2 -1 3 1 6 -8 11 -20 12
-11 0 -15 -1 -8 -4 6 -3 12 -11 12 -18 0 -10 9 -13 30 -10 17 2 28 0 25 -5 -3
-4 1 -10 7 -13 10 -3 10 -8 -1 -18 -12 -12 -13 -12 -6 0 6 10 4 12 -5 6 -9 -6
-11 -4 -5 5 6 9 4 11 -5 5 -9 -6 -11 -4 -5 6 7 12 6 12 -6 0 -11 -10 -11 -15
-1 -18 6 -3 10 -9 6 -14 -3 -5 0 -8 7 -7 6 2 14 -3 16 -10 3 -8 -2 -10 -14 -6
-14 5 -15 4 -3 -4 8 -6 17 -9 21 -6 4 2 10 0 14 -6 3 -5 1 -10 -4 -10 -6 0
-11 -5 -11 -11 0 -5 4 -8 9 -4 5 3 12 2 15 -3 3 -5 21 -7 40 -6 23 2 36 -1 36
-9 0 -8 4 -6 11 3 8 11 9 9 3 -10 -6 -23 -6 -24 11 -10 11 8 16 10 12 3 -4 -6
0 -16 9 -21 15 -8 15 -10 0 -15 -13 -5 -14 -11 -7 -25 6 -11 6 -24 -2 -37 -9
-17 -8 -18 4 -8 12 10 17 8 28 -8 7 -12 19 -18 26 -15 8 3 17 1 20 -3 3 -5 14
-7 25 -4 11 3 17 9 14 14 -3 5 -9 7 -14 4 -5 -3 -11 -1 -15 5 -4 6 -10 8 -14
6 -4 -3 -12 4 -19 14 -7 13 -8 21 -2 25 6 4 9 1 8 -6 -2 -6 3 -14 10 -16 8 -3
10 1 5 13 -6 16 -5 17 9 4 9 -8 12 -17 7 -18 -5 -2 -6 -8 -3 -13 3 -6 12 -5
22 3 10 7 14 9 10 4 -11 -13 24 -47 38 -35 8 6 14 7 18 0 4 -5 2 -12 -4 -16
-5 -3 -10 -11 -10 -17 0 -6 7 -5 18 3 9 7 14 9 9 4 -4 -4 0 -16 9 -26 14 -16
18 -16 31 -4 8 8 19 15 25 15 6 0 -2 -10 -17 -21 -18 -15 -29 -18 -34 -11 -4
7 -11 4 -20 -9 -9 -16 -10 -19 0 -13 9 5 10 2 6 -10 -4 -9 -3 -15 2 -12 5 3
11 -1 15 -9 3 -8 11 -15 18 -14 10 0 10 2 1 6 -7 2 -13 9 -13 14 0 5 14 3 30
-6 17 -9 30 -11 30 -5 0 5 5 10 11 10 8 0 8 -4 0 -14 -10 -11 -8 -17 6 -25 13
-9 14 -11 3 -10 -33 3 -48 -2 -55 -19 -5 -14 -4 -15 6 -4 15 14 33 16 24 2 -3
-5 -1 -10 4 -10 6 0 11 5 11 10 0 6 7 10 15 10 8 0 15 -6 15 -12 0 -9 4 -8 10
2 5 8 10 10 10 4 0 -5 -9 -20 -20 -32 -12 -12 -16 -22 -10 -22 6 0 8 -5 5 -11
-4 -6 2 -5 14 2 12 8 16 16 10 20 -6 4 1 6 15 7 21 0 24 -3 12 -12 -7 -6 -16
-23 -18 -38 -5 -25 -3 -26 16 -16 28 14 35 23 14 15 -10 -4 -18 -2 -18 3 0 13
21 13 40 0 11 -7 11 -10 2 -10 -8 0 -10 -5 -6 -12 4 -7 4 -10 -1 -6 -10 9 -45
-9 -45 -23 0 -6 7 -3 16 6 9 9 19 13 22 10 4 -3 0 -11 -8 -16 -13 -9 -12 -10
2 -5 10 3 20 1 23 -3 7 -12 -24 -23 -37 -14 -7 3 -8 1 -4 -6 4 -6 13 -10 19
-9 7 1 22 -3 34 -10 14 -8 24 -9 28 -2 4 6 11 7 17 4 6 -4 8 1 4 14 -8 23 8
39 20 21 5 -8 3 -9 -6 -4 -10 6 -12 4 -7 -9 4 -10 7 -20 7 -22 0 -3 6 -2 13 2
9 6 9 4 -1 -8 -13 -16 -7 -48 10 -48 6 0 5 6 -2 15 -7 8 -11 15 -9 16 31 6 39
6 39 -2 0 -5 -5 -9 -11 -9 -5 0 -7 -5 -4 -10 4 -7 14 -6 28 1 12 7 19 8 15 4
-10 -11 11 -47 23 -40 12 8 12 -2 -2 -27 -9 -16 -8 -23 5 -34 9 -8 11 -9 6 -2
-15 19 -12 32 5 18 9 -7 15 -8 15 -2 0 9 9 9 40 2 3 0 -6 -7 -20 -15 -14 -8
-20 -14 -14 -15 5 0 19 7 30 15 23 17 38 19 28 3 -4 -7 -3 -8 4 -4 7 4 12 2
12 -5 0 -7 3 -9 6 -6 4 4 1 13 -6 22 -10 12 -9 15 6 16 11 1 22 1 27 0 7 -1
11 15 8 33 -1 5 5 4 13 -3 8 -7 20 -10 25 -6 7 3 8 0 5 -10 -5 -13 -9 -13 -23
-3 -14 12 -15 11 -2 -5 13 -16 12 -18 -12 -13 -15 3 -27 1 -27 -3 0 -17 51 -8
64 10 7 10 16 16 21 11 4 -4 3 3 -4 15 -7 15 -17 20 -29 17 -13 -5 -14 -4 -3
4 7 5 18 16 23 23 8 11 9 10 5 -3 -3 -9 3 -24 14 -34 10 -9 19 -13 19 -8 0 5
5 2 10 -6 8 -11 9 -8 6 13 -3 16 -11 36 -18 45 -7 9 5 3 26 -13 22 -17 36 -23
31 -15 -5 8 -10 22 -10 30 0 8 -4 21 -8 28 -5 7 -4 12 2 12 6 0 11 -5 11 -12
0 -6 3 -8 8 -4 4 4 7 13 7 19 0 5 6 12 14 15 10 3 12 0 8 -11 -3 -8 1 -23 8
-34 13 -16 13 -15 10 15 -3 26 -1 32 8 23 8 -6 18 -7 27 0 12 8 11 9 -5 7 -12
-2 -20 3 -20 12 0 8 -5 22 -10 30 -7 13 -6 13 7 2 13 -10 17 -10 21 2 3 8 15
20 26 26 17 9 21 8 21 -4 0 -9 -6 -13 -12 -11 -7 2 -20 -6 -29 -18 -16 -21
-16 -23 1 -23 11 0 16 6 13 14 -3 7 0 12 7 10 8 -2 19 8 26 20 8 17 13 20 17
10 4 -8 6 -7 6 5 1 12 5 16 14 11 8 -6 8 -3 -1 9 -8 9 -11 21 -8 26 4 5 1 13
-5 17 -7 4 -9 3 -5 -4 3 -6 1 -14 -5 -18 -8 -5 -8 -8 1 -14 8 -5 8 -9 -3 -13
-8 -3 -23 1 -34 9 -13 10 -14 13 -2 9 14 -5 49 22 42 32 -9 11 0 12 18 2 17
-8 23 -8 30 2 4 7 5 17 2 22 -3 5 4 6 16 2 13 -4 21 -2 21 5 0 6 -4 8 -10 5
-5 -3 -10 -2 -10 3 0 5 -6 9 -14 9 -8 0 -13 -8 -11 -19 3 -12 0 -16 -7 -12 -7
5 -8 2 -3 -7 8 -12 6 -12 -9 0 -11 9 -13 18 -7 24 5 5 8 15 7 21 -2 6 -1 7 2
3 2 -5 14 1 27 13 17 16 25 18 30 9 5 -7 4 -10 -3 -5 -6 3 -13 2 -16 -3 -3 -5
0 -11 8 -14 20 -8 28 20 11 37 -19 18 -20 32 -2 17 8 -6 18 -7 22 -3 5 4 5 2
1 -5 -3 -6 -1 -15 5 -19 7 -4 9 -3 6 3 -12 20 19 36 45 23 21 -10 21 -10 6 3
-10 8 -15 17 -12 20 3 3 -4 10 -15 17 -12 6 -21 16 -21 23 0 8 4 7 10 -3 9
-13 13 -12 30 8 11 13 24 21 29 17 6 -3 17 7 25 22 8 15 15 22 16 16 0 -7 8
-13 17 -13 14 0 14 -3 5 -12 -10 -10 -15 -10 -21 0 -7 11 -9 11 -14 -1 -9 -24
39 -13 64 14 18 21 20 21 14 4 -6 -20 -6 -20 13 0 13 14 16 22 8 27 -7 5 -6 8
3 8 8 0 11 3 8 6 -4 4 -13 2 -20 -4 -8 -7 -18 -8 -22 -4 -5 4 -5 1 0 -7 6 -10
4 -12 -5 -6 -8 5 -11 4 -6 -3 9 -15 -22 -8 -37 8 -9 11 -8 11 7 0 18 -14 19
-13 13 2 -4 12 -2 15 7 12 8 -3 17 0 21 5 3 6 11 8 17 5 7 -4 8 2 3 17 -6 22
-6 22 6 7 8 -10 23 -16 34 -14 11 2 24 -2 28 -8 5 -7 6 -3 3 8 -4 10 -1 26 6
34 8 10 9 13 2 9 -21 -12 -23 20 -3 37 11 9 17 20 15 25 -3 5 1 14 9 21 10 9
15 9 15 1 0 -6 -4 -11 -8 -11 -4 0 -8 -10 -9 -22 -2 -22 -1 -22 12 -4 8 11 17
18 19 15 2 -2 -4 -15 -15 -28 -10 -13 -19 -18 -19 -12 0 6 -7 8 -16 4 -12 -4
-11 -8 8 -18 13 -6 22 -17 20 -24 -1 -7 2 -9 9 -6 7 5 7 11 1 17 -7 7 -5 19 6
36 15 23 16 23 24 6 6 -13 6 -10 3 10 -6 27 -5 28 12 16 15 -12 16 -12 6 0
-16 18 -17 34 -1 24 7 -4 8 -3 4 5 -4 6 -12 8 -18 5 -7 -4 -8 -2 -4 5 4 6 18
9 32 7 13 -3 22 -1 19 4 -3 5 1 15 10 23 13 13 12 15 -8 16 -42 1 -56 4 -51
13 3 4 13 4 23 -2 18 -9 31 -4 31 12 0 5 -5 6 -12 2 -6 -4 -8 -3 -4 4 3 5 2
12 -4 14 -6 2 -6 8 0 18 8 13 10 12 10 -3 0 -10 4 -16 10 -12 5 3 7 12 3 20
-3 8 -1 15 4 15 12 0 13 -33 1 -41 -5 -3 0 -13 10 -22 18 -17 20 -16 33 0 13
16 12 17 -3 5 -21 -16 -33 0 -19 26 7 13 6 23 -2 32 -10 10 -8 12 6 7 11 -4
16 -3 12 4 -4 5 -16 7 -28 3 -19 -6 -20 -5 -9 9 8 9 19 15 25 13 7 -1 9 -1 4
1 -4 3 -5 9 -1 14 3 5 -1 9 -8 9 -10 0 -9 3 2 11 12 9 12 10 -3 5 -10 -3 -22
-6 -25 -6 -4 0 0 -4 8 -10 8 -5 11 -12 7 -17 -9 -9 -28 17 -21 29 3 4 0 8 -5
8 -6 0 -11 7 -11 16 0 8 -5 12 -10 9 -6 -4 -10 -3 -9 2 4 24 -2 43 -13 37 -7
-4 -8 -3 -4 4 10 16 34 4 32 -16 -1 -12 5 -16 18 -14 17 3 18 1 7 -11 -14 -18
-1 -30 19 -16 13 7 13 9 1 9 -8 0 -11 3 -8 7 4 3 2 12 -4 20 -6 7 -7 13 -2 13
5 0 10 7 10 15 0 21 -4 19 -22 -12 l-15 -28 4 27 c3 15 8 33 12 39 4 8 3 9 -4
5 -7 -4 -12 -2 -12 4 0 6 -4 9 -9 5 -5 -3 -12 -1 -16 4 -3 5 -15 8 -27 6 -23
-5 -51 12 -43 26 3 4 -10 19 -29 31 -42 27 -43 31 -16 58 14 14 16 20 6 20 -8
0 -17 -7 -20 -16 -3 -8 -10 -13 -15 -9 -5 3 -13 0 -16 -5 -5 -8 -13 -6 -24 4
-10 9 -21 13 -24 9 -4 -3 -7 -1 -7 5 0 17 16 15 34 -3 8 -9 17 -11 21 -6 3 5
1 13 -5 16 -6 4 -8 15 -5 26 6 18 -4 24 -29 20 -5 -1 -6 5 -3 12 4 11 0 13
-14 10 -11 -3 -19 0 -19 6 0 7 4 9 10 6 6 -4 7 1 3 11 -5 15 -7 15 -16 -1 -7
-14 -4 -22 14 -36 13 -9 28 -15 33 -12 5 4 6 1 1 -7 -6 -9 -4 -11 5 -5 8 5 11
4 7 -3 -9 -14 -43 -7 -39 8 2 8 -3 10 -13 6 -10 -4 -14 -2 -9 5 4 7 1 10 -7 7
-8 -3 -12 -12 -11 -19 2 -8 0 -10 -5 -6 -4 5 -8 12 -8 15 0 4 -4 13 -9 20 -4
8 -2 20 6 29 12 15 11 15 -10 4 -13 -7 -28 -10 -35 -7 -7 2 -4 5 6 5 11 1 15
6 11 13 -4 6 -3 8 2 5 6 -3 16 -1 24 5 12 8 12 9 -2 4 -20 -6 -34 11 -30 36 2
9 -1 19 -7 22 -5 3 -7 -3 -4 -14 3 -12 0 -20 -6 -20 -7 0 -9 5 -6 10 3 6 -1
13 -10 16 -14 6 -14 8 2 21 17 13 17 14 -1 5 -21 -11 -31 -42 -13 -38 7 2 9 1
5 -1 -4 -3 -2 -10 5 -18 7 -7 16 -10 21 -7 5 3 6 -1 1 -8 -6 -9 -4 -11 6 -5
11 6 12 5 2 -5 -10 -11 -16 -8 -34 14 -13 16 -24 23 -28 17 -4 -6 -12 -1 -20
12 -13 20 -13 21 2 8 15 -12 17 -11 17 13 0 14 5 26 10 26 6 0 10 5 10 10 0 6
-8 5 -19 -2 -11 -7 -18 -15 -16 -18 2 -3 -5 -7 -16 -7 -16 -2 -12 5 17 28 20
16 33 29 27 29 -5 0 -14 -5 -21 -12 -13 -13 -17 2 -4 18 4 5 5 8 3 7 -2 -2
-11 3 -20 10 -14 11 -15 10 -1 -7 14 -18 13 -19 -3 -13 -10 4 -21 7 -23 7 -3
0 -2 5 2 12 5 7 3 8 -6 3 -10 -6 -9 -11 5 -22 11 -7 13 -13 6 -13 -7 0 -9 -5
-5 -11 5 -8 9 -8 14 1 5 8 10 8 14 2 12 -19 -20 -20 -45 -1 -18 14 -19 18 -5
12 15 -5 17 -3 10 8 -20 33 -13 44 26 40 8 -1 0 7 -18 18 -17 12 -31 26 -30
33 2 8 -5 12 -17 10 -16 -3 -18 -1 -7 9 6 7 12 18 12 24 0 5 -5 3 -10 -5 -9
-13 -10 -13 -11 0 -1 8 -1 18 0 23 0 4 -4 7 -10 7 -6 0 -8 -7 -5 -16 4 -10 2
-13 -7 -9 -6 4 -4 0 5 -8 10 -8 15 -17 11 -20 -3 -4 2 -9 11 -13 9 -3 13 -11
9 -17 -4 -6 -1 -7 7 -2 9 6 11 4 5 -5 -5 -8 -4 -11 3 -6 7 4 9 -1 7 -16 -3
-13 -9 -24 -15 -26 -6 -2 -7 -9 -3 -15 3 -7 2 -9 -2 -4 -5 4 -9 16 -10 26 -1
13 3 17 14 14 13 -5 14 -4 3 8 -7 8 -20 14 -29 14 -9 0 -17 6 -19 13 -1 7 0 8
3 2 5 -12 23 -14 23 -2 0 4 -9 18 -20 32 -11 14 -18 18 -15 9 4 -10 -1 -19
-11 -23 -13 -5 -14 -4 -6 7 15 18 3 30 -15 15 -11 -8 -12 -7 -7 6 3 9 10 16
16 16 5 0 6 5 3 10 -5 8 -11 7 -21 -1 -8 -6 -15 -8 -16 -3 0 5 -2 14 -3 19 -2
6 -3 16 -4 23 0 7 -6 10 -11 7 -6 -4 -5 4 1 19 7 14 16 23 22 19 6 -4 7 -1 2
7 -6 10 -12 7 -26 -11 -10 -13 -19 -20 -19 -15 0 5 -6 4 -13 -2 -7 -6 -18 -7
-26 -3 -9 6 -10 11 -2 15 6 4 11 2 11 -4 0 -6 5 -8 10 -5 8 5 8 11 0 20 -6 7
-8 20 -4 29 4 10 1 16 -8 16 -8 0 -20 10 -26 23 -6 12 -11 16 -11 10 -1 -7 -6
-13 -12 -13 -6 0 -8 7 -5 16 6 15 4 15 -10 3 -26 -21 -46 -20 -39 2 8 23 0 26
-9 3z m49 -74 c3 -6 -1 -7 -9 -4 -18 7 -21 14 -7 14 6 0 13 -4 16 -10z m-220
-30 c-3 -5 -12 -10 -18 -10 -7 0 -6 4 3 10 19 12 23 12 15 0z m-73 -34 c7 4 7
0 0 -12 -5 -11 -12 -26 -16 -34 -3 -8 -4 -3 -1 13 3 15 2 27 -2 26 -20 -3 -24
2 -12 18 13 15 14 15 17 -1 2 -9 8 -13 14 -10z m-144 -179 c-7 -12 -11 -25
-10 -29 1 -4 -6 -4 -16 -1 -14 6 -15 4 -4 -9 15 -19 -2 -35 -21 -20 -7 5 -21
8 -32 6 -18 -3 -17 -1 5 16 13 10 28 16 32 14 4 -3 8 0 8 5 0 6 6 10 13 9 6
-2 13 4 13 12 3 29 4 31 14 25 7 -4 6 -14 -2 -28z m402 -93 c0 -8 -19 -13 -24
-6 -3 5 1 9 9 9 8 0 15 -2 15 -3z m-106 -22 c3 -5 -1 -9 -9 -9 -8 0 -12 4 -9
9 3 4 7 8 9 8 2 0 6 -4 9 -8z m-415 -30 c0 -16 -1 -16 -7 0 -5 13 -11 15 -22
8 -13 -9 -13 -10 0 -10 13 0 13 -1 0 -10 -12 -8 -12 -10 5 -11 11 0 14 -3 7
-6 -7 -3 -20 1 -29 9 -15 11 -16 11 -10 -6 6 -16 5 -17 -8 -6 -15 12 -15 14 0
22 8 5 12 14 9 20 -4 6 -3 8 2 5 6 -3 16 -2 24 3 18 11 30 4 29 -18z m400 1
c2 -1 -5 -1 -16 0 -11 0 -20 7 -20 14 0 10 4 10 16 1 9 -7 18 -13 20 -15z m58
21 c-3 -3 -12 -4 -19 -1 -8 3 -5 6 6 6 11 1 17 -2 13 -5z m19 -9 c-3 -10 1
-18 11 -22 15 -6 15 -7 -2 -13 -12 -4 -15 -9 -7 -14 6 -4 21 3 32 14 12 12 25
19 28 15 4 -3 0 -10 -7 -14 -10 -7 -9 -10 8 -16 11 -3 21 -11 21 -16 0 -5 -10
-3 -23 6 -21 13 -25 13 -45 -1 -12 -8 -20 -19 -18 -23 3 -4 -6 -7 -19 -7 -13
0 -21 4 -19 8 3 4 1 8 -4 8 -5 0 -14 -10 -20 -22 l-11 -23 2 24 c1 13 -4 26
-11 28 -7 3 -10 -1 -6 -11 3 -9 1 -16 -6 -16 -6 0 -9 4 -5 9 3 6 -3 15 -12 21
-17 11 -17 11 -1 6 11 -3 22 2 28 15 8 13 17 18 30 14 13 -4 24 2 37 19 21 29
28 33 19 11z m-446 -5 c0 -5 -2 -10 -4 -10 -3 0 -8 5 -11 10 -3 6 -1 10 4 10
6 0 11 -4 11 -10z m485 0 c-3 -5 -12 -10 -18 -10 -7 0 -6 4 3 10 19 12 23 12
15 0z m405 -2 c0 -6 -3 -8 -7 -5 -3 4 -11 2 -18 -3 -8 -7 -12 -6 -12 3 0 7 9
14 19 14 10 1 18 -3 18 -9z m-602 -20 c-2 -7 3 -12 10 -10 6 1 12 -2 12 -8 0
-5 -7 -10 -16 -10 -9 0 -12 -5 -8 -12 4 -6 3 -8 -3 -5 -8 5 -10 36 -4 55 3 8
11 0 9 -10z m62 -8 c0 -5 -7 -7 -15 -4 -8 4 -15 8 -15 10 0 2 7 4 15 4 8 0 15
-4 15 -10z m-97 -15 c-3 -9 -8 -14 -10 -11 -3 3 -2 9 2 15 9 16 15 13 8 -4z
m297 5 c0 -5 -7 -7 -15 -4 -8 4 -15 8 -15 10 0 2 7 4 15 4 8 0 15 -4 15 -10z
m46 -22 c5 -7 3 -8 -6 -3 -10 6 -12 4 -6 -11 5 -14 4 -16 -5 -7 -6 6 -8 16 -5
22 9 14 13 14 22 -1z m29 2 c3 -5 1 -10 -4 -10 -6 0 -11 5 -11 10 0 6 2 10 4
10 3 0 8 -4 11 -10z m-320 -19 c-3 -6 -11 -11 -16 -11 -5 0 -4 6 3 14 14 16
24 13 13 -3z m195 8 c12 -8 10 -9 -9 -4 -16 5 -21 4 -17 -4 4 -6 2 -11 -3 -11
-12 0 -14 13 -4 23 9 9 15 9 33 -4z m57 4 c-4 -3 -2 -12 4 -19 9 -10 7 -15 -5
-20 -9 -3 -14 -9 -11 -13 2 -4 -2 -8 -10 -8 -22 0 -18 15 5 22 11 4 18 10 15
15 -3 5 -13 6 -23 3 -13 -4 -13 -2 3 10 20 16 34 23 22 10z m44 -36 c-10 -9
-11 -8 -5 6 3 10 9 15 12 12 3 -3 0 -11 -7 -18z m-331 3 c0 -5 -4 -10 -10 -10
-5 0 -10 -7 -10 -17 0 -9 -3 -14 -6 -10 -8 8 5 47 17 47 5 0 9 -4 9 -10z m74
-5 c11 -8 14 -15 7 -15 -7 0 -9 -5 -5 -12 4 -7 5 -11 1 -8 -3 3 -5 8 -4 12 1
4 -7 14 -18 22 -11 9 -15 15 -10 15 6 0 19 -6 29 -14z m166 5 c0 -5 -4 -10
-10 -10 -5 0 -10 5 -10 10 0 6 5 10 10 10 6 0 10 -4 10 -10z m118 -16 c0 -17
-3 -22 -8 -13 -5 6 -6 18 -3 26 8 19 11 16 11 -13z m-432 2 c17 6 17 5 -1 -9
-11 -8 -20 -15 -20 -14 -1 1 -7 11 -15 22 -14 18 -13 19 1 7 9 -7 25 -9 35 -6z
m115 -3 c12 -16 12 -17 -2 -6 -9 7 -20 9 -24 5 -5 -4 -5 -1 -1 6 9 16 11 15
27 -5z m-461 -3 c0 -5 -2 -10 -4 -10 -3 0 -8 5 -11 10 -3 6 -1 10 4 10 6 0 11
-4 11 -10z m755 -12 c5 4 5 1 1 -6 -4 -7 -11 -10 -16 -7 -4 3 -11 -1 -14 -7
-3 -7 -3 -2 0 11 5 17 3 21 -6 16 -9 -6 -11 -4 -5 5 6 10 11 10 20 -3 7 -9 16
-13 20 -9z m62 16 c-3 -3 -12 -4 -19 -1 -8 3 -5 6 6 6 11 1 17 -2 13 -5z
m-437 -24 c0 -5 -8 -7 -17 -3 -15 5 -16 3 -5 -8 6 -7 12 -17 12 -23 0 -5 -6
-1 -14 9 -8 11 -12 23 -10 27 7 11 34 10 34 -2z m73 -15 c-7 -21 -12 -19 -10
4 0 11 5 18 9 15 4 -3 5 -11 1 -19z m374 19 c-3 -3 -12 -4 -19 -1 -8 3 -5 6 6
6 11 1 17 -2 13 -5z m53 1 c0 -7 -30 -13 -34 -7 -3 4 4 9 15 9 10 1 19 0 19
-2z m-958 -26 c-20 -24 -23 -24 -15 -1 6 15 5 15 -11 3 -12 -10 -14 -17 -6
-25 13 -13 13 -26 0 -26 -5 0 -9 5 -7 11 1 6 -4 14 -12 17 -8 3 -11 0 -7 -6 4
-7 1 -22 -6 -34 -7 -13 -11 -27 -10 -32 2 -5 -5 -3 -14 5 -16 12 -17 12 -11
-4 5 -14 4 -16 -10 -9 -9 6 -18 17 -19 25 -3 21 23 30 30 11 6 -16 26 -10 26
7 0 6 -5 7 -12 3 -7 -4 -3 8 8 27 11 19 25 34 31 34 6 0 14 2 17 5 3 3 14 6
25 7 18 2 19 1 3 -18z m499 -2 c-10 -9 -11 -8 -5 6 3 10 9 15 12 12 3 -3 0
-11 -7 -18z m-470 -10 c-10 -9 -11 -8 -5 6 3 10 9 15 12 12 3 -3 0 -11 -7 -18z
m369 13 c0 -5 -4 -10 -10 -10 -5 0 -10 5 -10 10 0 6 5 10 10 10 6 0 10 -4 10
-10z m77 -5 c0 -8 -4 -12 -9 -9 -5 3 -6 10 -3 15 9 13 12 11 12 -6z m403 7 c0
-4 -9 -8 -20 -9 -11 -1 -20 2 -20 5 0 4 9 8 20 9 11 1 20 -2 20 -5z m36 -9
c-2 -9 -8 -19 -14 -21 -7 -2 -10 -8 -6 -13 3 -5 0 -8 -8 -7 -7 2 -12 -3 -10
-10 1 -8 -2 -11 -8 -7 -12 8 10 45 27 45 7 0 10 7 7 15 -4 8 -2 15 4 15 6 0 9
-8 8 -17z m47 2 c-3 -9 -8 -14 -10 -11 -3 3 -2 9 2 15 9 16 15 13 8 -4z m-552
-22 c-12 -20 -14 -14 -5 12 4 9 9 14 11 11 3 -2 0 -13 -6 -23z m-77 9 c3 -5
-1 -9 -9 -9 -8 0 -12 4 -9 9 3 4 7 8 9 8 2 0 6 -4 9 -8z m597 -15 c-10 -9 -11
-8 -5 6 3 10 9 15 12 12 3 -3 0 -11 -7 -18z m-561 -24 c-11 -17 -11 -17 -6 0
3 10 6 24 7 30 0 9 2 9 5 0 3 -7 0 -20 -6 -30z m70 17 c0 -5 -4 -10 -10 -10
-5 0 -10 5 -10 10 0 6 5 10 10 10 6 0 10 -4 10 -10z m40 4 c0 -8 -19 -13 -24
-6 -3 5 1 9 9 9 8 0 15 -2 15 -3z m476 -19 c-3 -9 -10 -13 -16 -10 -5 3 -10
-3 -10 -14 0 -24 -16 -36 -26 -20 -4 8 -3 9 4 5 8 -5 12 1 12 14 0 13 -4 19
-12 14 -6 -4 -8 -3 -4 4 3 6 15 9 26 7 13 -3 20 2 20 12 0 9 3 14 6 10 4 -3 4
-13 0 -22z m-609 9 c-3 -3 -12 -4 -19 -1 -8 3 -5 6 6 6 11 1 17 -2 13 -5z m46
-19 c-3 -9 -8 -14 -10 -11 -3 3 -2 9 2 15 9 16 15 13 8 -4z m600 0 c-3 -9 -8
-14 -10 -11 -3 3 -2 9 2 15 9 16 15 13 8 -4z m397 10 c0 -7 -30 -13 -34 -7 -3
4 4 9 15 9 10 1 19 0 19 -2z m-1038 -35 c-2 -7 3 -10 12 -7 9 4 18 2 20 -2 3
-5 -3 -8 -14 -7 -11 0 -20 5 -19 10 0 5 -5 13 -13 18 -10 8 -10 9 2 5 8 -2 14
-10 12 -17z m61 5 c4 -8 3 -16 -1 -19 -4 -3 -9 4 -9 15 -2 23 3 25 10 4z m602
-37 c11 11 15 12 10 3 -13 -22 -10 -74 3 -79 8 -2 10 3 6 15 -5 14 -4 15 4 3
6 -8 9 -17 6 -21 -2 -4 2 -10 8 -12 7 -3 -2 -4 -21 -2 -19 2 -38 8 -44 14 -11
11 0 34 14 26 5 -4 9 3 9 15 0 12 -4 18 -10 15 -5 -3 -16 11 -25 31 -20 49
-18 58 4 12 17 -36 18 -37 36 -20z m-2 21 c-8 -8 -13 -7 -18 2 -6 8 -4 10 5 4
10 -6 12 -4 6 11 -6 15 -5 17 5 7 9 -10 10 -16 2 -24z m-659 -28 c-5 -6 -34
20 -34 30 0 5 8 1 18 -8 10 -10 17 -20 16 -22z m600 14 c-4 -8 -11 -12 -17 -8
-8 5 -7 8 1 11 7 2 9 9 6 14 -4 7 -2 8 4 4 6 -4 9 -13 6 -21z m546 -7 c0 -5
-4 -8 -10 -8 -5 0 -10 5 -10 12 0 6 -10 3 -22 -8 -19 -15 -20 -16 -9 -1 12 15
11 17 -5 18 -18 0 -18 1 1 8 20 8 55 -6 55 -21z m-1184 0 c4 -7 3 -8 -4 -4 -7
4 -12 2 -12 -5 0 -7 -3 -10 -6 -6 -6 5 3 27 11 27 2 0 7 -5 11 -12z m754 6 c0
-8 -19 -13 -24 -6 -3 5 1 9 9 9 8 0 15 -2 15 -3z m-795 -23 c-9 -8 -36 -10
-30 -2 2 4 11 8 20 8 8 0 13 -3 10 -6z m699 -31 c-5 -5 -10 3 -11 18 -1 22 0
24 9 8 6 -10 6 -22 2 -26z m86 25 c0 -12 -19 -12 -23 0 -4 9 -1 12 9 8 7 -3
14 -7 14 -8z m-720 -6 c0 -5 -4 -8 -9 -5 -5 4 -11 0 -14 -6 -2 -7 -8 -9 -13
-5 -5 4 -2 12 6 17 20 13 30 12 30 -1z m-54 -8 c-3 -5 1 -14 9 -21 12 -10 19
-10 33 1 9 7 14 9 10 5 -4 -5 0 -15 10 -23 15 -13 15 -13 -4 -4 -25 12 -51 -9
-39 -30 6 -8 2 -8 -13 0 -28 15 -32 14 -26 -4 4 -8 11 -12 17 -8 6 4 7 1 2 -7
-6 -10 -4 -12 8 -7 18 7 29 -15 20 -40 -5 -12 -3 -14 8 -8 7 5 4 -3 -8 -19
-12 -15 -19 -35 -16 -44 4 -13 3 -14 -5 -3 -5 7 -16 18 -23 23 -11 8 -10 9 4
4 19 -6 20 -5 11 18 -3 9 -10 16 -16 16 -5 0 -6 -4 -3 -10 3 -5 2 -10 -4 -10
-19 0 -21 19 -3 24 10 3 18 15 18 26 0 11 -1 20 -2 20 -15 0 -33 -14 -25 -19
6 -4 2 -12 -9 -19 -12 -7 -20 -8 -20 -2 0 5 4 10 8 10 12 0 11 32 -1 48 -5 6
-6 12 -2 12 4 0 14 -8 21 -17 12 -17 13 -17 14 -1 0 9 -8 22 -17 28 -17 11
-17 11 -1 6 10 -3 22 2 27 12 9 15 10 15 11 -2 0 -16 2 -18 13 -7 10 10 8 16
-11 31 -15 13 -18 20 -10 23 19 8 20 8 14 -2z m94 -1 c0 -5 -5 -10 -11 -10 -5
0 -7 5 -4 10 3 6 8 10 11 10 2 0 4 -4 4 -10z m-120 -30 c0 -5 -7 -7 -15 -4 -8
4 -15 8 -15 10 0 2 7 4 15 4 8 0 15 -4 15 -10z m856 -5 c-1 -8 -5 -17 -8 -21
-5 -4 -4 16 1 34 3 9 9 -1 7 -13z m-36 -10 c0 -8 -2 -15 -4 -15 -2 0 -6 7 -10
15 -3 8 -1 15 4 15 6 0 10 -7 10 -15z m-860 -10 c0 -7 -30 -13 -34 -7 -3 4 4
9 15 9 10 1 19 0 19 -2z m120 1 c0 -3 -4 -8 -10 -11 -5 -3 -10 -1 -10 4 0 6 5
11 10 11 6 0 10 -2 10 -4z m640 -6 c0 -5 -5 -10 -11 -10 -5 0 -7 5 -4 10 3 6
8 10 11 10 2 0 4 -4 4 -10z m56 -26 c-7 -18 4 -45 15 -38 5 3 9 0 9 -6 0 -7
-7 -9 -16 -6 -10 4 -14 2 -11 -6 2 -7 10 -12 16 -10 7 1 11 -3 10 -10 -3 -25
1 -39 9 -34 5 3 9 -1 9 -9 0 -10 -4 -12 -12 -5 -7 5 -16 6 -20 2 -5 -4 -5 1
-2 10 3 9 -3 28 -14 42 -11 14 -16 26 -10 26 6 0 11 4 11 9 0 5 -8 8 -17 6
-10 -1 -12 0 -5 2 17 6 15 20 -5 31 -13 8 -11 10 11 10 19 0 26 -5 22 -14z
m34 9 c-1 -18 -18 -35 -24 -24 -4 6 -2 11 4 11 6 0 8 5 5 10 -3 6 -1 10 4 10
6 0 11 -3 11 -7z m13 -28 c-3 -9 -8 -14 -10 -11 -3 3 -2 9 2 15 9 16 15 13 8
-4z m18 -18 c-10 -9 -11 -8 -5 6 3 10 9 15 12 12 3 -3 0 -11 -7 -18z m-881 7
c0 -8 -19 -13 -24 -6 -3 5 1 9 9 9 8 0 15 -2 15 -3z m890 -30 c0 -2 -9 -4 -20
-4 -11 0 -20 4 -20 9 0 5 9 7 20 4 11 -3 20 -7 20 -9z m-104 -20 c-4 -12 -2
-15 9 -10 8 3 15 0 15 -5 0 -7 -9 -9 -21 -6 -13 3 -19 1 -16 -6 3 -7 9 -11 15
-10 5 1 16 -4 22 -12 9 -11 9 -15 1 -15 -6 0 -11 5 -11 11 0 5 -4 8 -9 5 -16
-10 -35 22 -22 37 6 8 8 17 4 20 -3 4 -1 7 6 7 8 0 11 -6 7 -16z m-680 -26
c-18 -26 -22 -17 -5 14 6 11 13 17 16 15 3 -3 -2 -16 -11 -29z m769 12 c3 -6
-1 -7 -9 -4 -18 7 -21 14 -7 14 6 0 13 -4 16 -10z m-820 -40 c-3 -5 -14 -10
-23 -9 -14 0 -13 2 3 9 27 11 27 11 20 0z m113 1 c9 -5 4 -8 -16 -7 -17 1 -28
4 -25 9 6 9 25 9 41 -2z m589 -11 c-1 -10 -3 -17 -6 -15 -2 3 -10 -3 -18 -13
-12 -15 -13 -14 -1 8 7 14 11 28 10 33 -1 4 2 7 7 7 6 0 9 -9 8 -20z m-647 6
c0 -2 -7 -7 -16 -10 -8 -3 -12 -2 -9 4 6 10 25 14 25 6z m1171 -9 c-1 -12 -15
-9 -19 4 -3 6 1 10 8 8 6 -3 11 -8 11 -12z m-1605 -22 c1 -8 -2 -15 -7 -15 -5
0 -9 -5 -9 -11 0 -5 5 -7 10 -4 6 3 10 1 10 -4 0 -19 -19 -12 -31 10 -8 15 -8
19 0 15 10 -7 16 7 11 29 -1 6 2 6 6 2 4 -4 9 -14 10 -22z m418 -17 c-3 -4 3
-7 13 -5 10 1 19 -2 20 -7 0 -5 8 -13 17 -18 9 -5 14 -13 11 -18 -3 -4 2 -11
11 -14 9 -3 12 -11 8 -18 -5 -8 -2 -9 9 -5 10 3 17 2 17 -4 0 -6 -8 -9 -17 -7
-9 2 -15 7 -12 11 2 5 -4 13 -14 18 -9 6 -15 14 -12 19 3 4 -2 11 -11 14 -8 3
-12 10 -9 16 8 13 -1 13 -25 0 -16 -8 -18 -7 -15 9 2 11 -3 22 -11 25 -8 3
-14 10 -14 16 0 5 9 2 19 -7 11 -9 18 -20 15 -25z m62 17 c1 -8 -2 -15 -6 -15
-5 0 -8 9 -7 20 1 21 10 18 13 -5z m639 4 c0 -8 -6 -13 -12 -11 -7 1 -13 -8
-13 -20 0 -21 0 -21 23 -2 l22 19 -19 -23 c-12 -14 -23 -19 -29 -13 -12 12 -4
47 11 44 15 -4 16 13 2 20 -6 3 -5 4 2 3 7 -2 13 -9 13 -17z m-668 5 c-3 -3
-12 -4 -19 -1 -8 3 -5 6 6 6 11 1 17 -2 13 -5z m1109 -19 c1 -14 -2 -25 -6
-25 -6 0 -7 36 -1 48 4 7 6 -1 7 -23z m-531 -3 c-3 -3 -11 0 -18 7 -9 10 -8
11 6 5 10 -3 15 -9 12 -12z m155 12 c0 -8 -19 -13 -24 -6 -3 5 1 9 9 9 8 0 15
-2 15 -3z m-1148 -32 c-3 -10 -1 -13 6 -8 8 5 10 2 6 -9 -7 -18 -7 -18 -22 11
-8 16 -8 21 3 21 7 0 11 -7 7 -15z m464 3 c-3 -9 0 -15 9 -15 18 0 20 -16 3
-26 -6 -4 -8 -3 -5 3 4 6 0 13 -8 17 -13 5 -11 36 2 36 3 0 3 -7 -1 -15z
m-121 -4 c3 -5 2 -12 -3 -15 -5 -3 -9 1 -9 9 0 17 3 19 12 6z m715 -45 c0 -6
-7 -1 -15 10 -8 10 -15 23 -15 28 0 6 7 1 15 -10 8 -10 15 -23 15 -28z m41 21
c-10 -9 -11 -8 -5 6 3 10 9 15 12 12 3 -3 0 -11 -7 -18z m-71 -17 c0 -15 -18
-21 -26 -9 -4 8 -3 9 4 5 19 -11 14 5 -5 21 -16 13 -16 13 5 3 12 -6 22 -15
22 -20z m-1040 16 c0 -9 -30 -14 -35 -6 -4 6 3 10 14 10 12 0 21 -2 21 -4z
m395 -14 c-3 -3 -11 0 -18 7 -9 10 -8 11 6 5 10 -3 15 -9 12 -12z m600 8 c3
-5 1 -10 -4 -10 -6 0 -11 5 -11 10 0 6 2 10 4 10 3 0 8 -4 11 -10z m-560 -19
c3 -5 0 -13 -6 -17 -7 -4 -9 -3 -5 4 3 5 0 13 -6 15 -9 4 -10 6 -1 6 6 1 14
-3 18 -8z m518 -6 c4 -8 3 -16 -1 -19 -4 -3 -9 4 -9 15 -2 23 3 25 10 4z m32
-3 c-3 -3 -11 0 -18 7 -9 10 -8 11 6 5 10 -3 15 -9 12 -12z m432 -7 c0 -8 -4
-15 -9 -15 -10 0 -11 14 -1 23 9 10 10 9 10 -8z m-1007 -1 c0 -8 -19 -13 -24
-6 -3 5 1 9 9 9 8 0 15 -2 15 -3z m153 -9 c-3 -9 -8 -14 -10 -11 -3 3 -2 9 2
15 9 16 15 13 8 -4z m452 5 c3 -5 1 -10 -4 -10 -6 0 -11 5 -11 10 0 6 2 10 4
10 3 0 8 -4 11 -10z m50 0 c3 -6 -1 -7 -9 -4 -10 4 -16 1 -16 -7 0 -7 -3 -10
-6 -6 -7 7 4 27 16 27 5 0 12 -4 15 -10z m385 -5 c11 -13 10 -14 -4 -9 -9 3
-16 10 -16 15 0 13 6 11 20 -6z m-990 -15 c0 -5 -4 -10 -10 -10 -5 0 -10 5
-10 10 0 6 5 10 10 10 6 0 10 -4 10 -10z m80 1 c0 -13 -40 -30 -56 -24 -12 4
-15 3 -10 -5 4 -7 5 -12 2 -12 -16 0 -13 21 5 30 17 9 20 9 14 0 -5 -8 -3 -11
6 -8 8 3 13 10 12 15 -1 5 5 10 13 10 8 0 14 -3 14 -6z m80 5 c0 -2 -7 -7 -16
-10 -8 -3 -12 -2 -9 4 6 10 25 14 25 6z m375 -23 c1 -14 -3 -19 -12 -16 -11 4
-11 8 -1 21 11 13 10 15 -4 9 -10 -3 -18 -2 -18 4 0 20 33 4 35 -18z m-151 -4
c-19 -21 -19 -21 6 -18 18 3 26 -1 28 -15 6 -28 -12 -40 -29 -19 -13 16 -12
17 4 4 15 -12 17 -11 17 7 0 15 -5 20 -15 16 -26 -10 -38 6 -19 27 9 10 19 19
22 19 3 0 -3 -9 -14 -21z m96 -9 c-6 -12 -14 -19 -17 -16 -3 3 -12 -2 -20 -12
-13 -15 -13 -15 -3 6 6 12 15 20 20 17 5 -3 12 4 15 16 4 11 9 18 12 16 2 -3
-1 -15 -7 -27z m504 22 c3 -5 -1 -9 -9 -9 -8 0 -15 4 -15 9 0 4 4 8 9 8 6 0
12 -4 15 -8z m-1309 -12 c3 -6 -1 -7 -9 -4 -18 7 -21 14 -7 14 6 0 13 -4 16
-10z m478 -7 c-4 -11 -3 -14 6 -9 8 5 14 1 18 -13 7 -26 20 -27 26 -3 2 9 4 1
3 -18 -1 -30 -26 -79 -26 -51 0 5 5 13 10 16 6 4 4 12 -5 21 -8 9 -15 22 -15
30 0 8 -4 13 -9 9 -12 -7 -24 12 -16 25 10 16 15 12 8 -7z m51 9 c3 -5 -1 -9
-9 -9 -8 0 -12 4 -9 9 3 4 7 8 9 8 2 0 6 -4 9 -8z m236 -2 c0 -5 -5 -10 -11
-10 -5 0 -7 5 -4 10 3 6 8 10 11 10 2 0 4 -4 4 -10z m475 0 c-3 -5 -12 -10
-18 -10 -7 0 -6 4 3 10 19 12 23 12 15 0z m-1259 -25 c-2 -7 1 -18 7 -24 6 -6
7 -11 2 -11 -6 0 -3 -5 5 -10 9 -6 10 -10 3 -10 -13 0 -32 30 -38 60 -3 13 1
17 11 13 8 -3 13 -11 10 -18z m417 10 c-3 -9 -8 -14 -10 -11 -3 3 -2 9 2 15 9
16 15 13 8 -4z m42 -4 c-3 -6 -11 -8 -17 -5 -7 5 -9 1 -5 -9 3 -10 2 -17 -4
-17 -6 0 -9 8 -7 18 2 9 10 16 16 15 7 -2 12 2 12 9 0 6 3 9 6 5 3 -3 3 -11
-1 -16z m135 -7 c0 -2 -7 -4 -15 -4 -8 0 -15 4 -15 10 0 5 7 7 15 4 8 -4 15
-8 15 -10z m104 0 c3 -8 2 -12 -4 -9 -6 3 -10 10 -10 16 0 14 7 11 14 -7z
m-20 -9 c3 -8 1 -15 -4 -15 -6 0 -10 7 -10 15 0 8 2 15 4 15 2 0 6 -7 10 -15z
m-183 -12 c10 -11 10 -14 2 -9 -7 4 -13 2 -13 -3 0 -6 -5 -11 -11 -11 -8 0 -7
6 2 17 12 15 12 16 -4 10 -11 -4 -16 -3 -12 3 9 15 21 12 36 -7z m366 0 c0
-10 -4 -10 -16 -1 -9 7 -18 13 -20 15 -2 1 5 1 16 0 11 0 20 -7 20 -14z m-282
-2 c-3 -5 -1 -12 5 -16 5 -3 10 -1 10 4 0 6 5 11 11 11 8 0 8 -4 -1 -15 -6 -8
-9 -18 -6 -24 3 -5 -1 -11 -9 -14 -9 -4 -12 -1 -8 10 3 8 0 19 -7 23 -11 7 -7
30 6 30 3 0 3 -4 -1 -9z m109 -12 c13 11 19 11 31 1 8 -7 15 -19 15 -27 0 -8
5 -11 12 -7 7 4 8 3 4 -5 -9 -14 -26 -5 -26 14 0 14 -24 27 -34 18 -10 -10 -7
-25 4 -18 6 3 10 1 10 -5 0 -7 -8 -9 -19 -5 -15 4 -24 -1 -35 -23 -11 -20 -21
-28 -38 -27 -26 3 -26 23 -1 43 10 7 12 12 5 12 -9 0 -9 4 0 19 11 18 12 18
29 -3 10 -11 18 -16 19 -9 0 6 -4 15 -10 18 -5 3 -10 11 -10 18 0 6 6 2 14 -8
12 -16 16 -17 30 -6z m496 11 c0 -5 -5 -10 -11 -10 -5 0 -7 5 -4 10 3 6 8 10
11 10 2 0 4 -4 4 -10z m-387 -20 c-3 -12 -8 -19 -11 -16 -5 6 5 36 12 36 2 0
2 -9 -1 -20z m28 7 c-6 -8 -7 -18 -3 -22 4 -5 1 -5 -6 -1 -10 6 -10 11 -1 22
6 8 14 14 16 14 3 0 0 -6 -6 -13z m-421 -13 c0 -8 -19 -13 -24 -6 -3 5 1 9 9
9 8 0 15 -2 15 -3z m110 -9 c0 -8 -2 -15 -4 -15 -2 0 -6 7 -10 15 -3 8 -1 15
4 15 6 0 10 -7 10 -15z m-50 -11 c0 -8 -19 -13 -24 -6 -3 5 1 9 9 9 8 0 15 -2
15 -3z m13 -19 c-3 -9 -8 -14 -10 -11 -3 3 -2 9 2 15 9 16 15 13 8 -4z m91 -2
c4 -9 2 -21 -4 -27 -8 -8 -9 -6 -4 8 5 12 4 17 -3 13 -5 -3 -10 0 -10 8 0 20
13 19 21 -2z m-389 -3 c3 -5 1 -10 -4 -10 -6 0 -11 5 -11 10 0 6 2 10 4 10 3
0 8 -4 11 -10z m339 2 c3 -5 -1 -9 -9 -9 -8 0 -12 4 -9 9 3 4 7 8 9 8 2 0 6
-4 9 -8z m159 -9 c-5 -12 -3 -14 7 -8 9 5 11 4 6 -4 -4 -6 -12 -9 -17 -6 -12
8 -12 35 1 35 5 0 6 -7 3 -17z m47 5 c0 -4 -4 -8 -9 -8 -6 0 -12 4 -15 8 -3 5
1 9 9 9 8 0 15 -4 15 -9z m-503 -43 c0 -8 -4 -12 -8 -9 -4 2 -9 -1 -11 -8 -6
-16 -36 -18 -42 -3 -3 8 0 12 7 9 7 -2 21 2 32 10 11 9 20 16 21 16 0 0 1 -7
1 -15z m433 5 c-8 -5 -19 -10 -25 -10 -5 0 -3 5 5 10 8 5 20 10 25 10 6 0 3
-5 -5 -10z m450 1 c0 -13 -12 -20 -26 -14 -20 8 -17 19 6 20 11 1 20 -2 20 -6z
m-880 -41 c0 -5 -5 -10 -11 -10 -5 0 -7 5 -4 10 3 6 8 10 11 10 2 0 4 -4 4
-10z m55 -41 c11 -16 1 -19 -13 -3 -7 8 -8 14 -3 14 5 0 13 -5 16 -11z m39
-49 c-6 -6 -10 -3 -10 10 0 13 4 16 10 10 7 -7 7 -13 0 -20z m621 0 c-3 -5 -1
-10 6 -10 7 0 10 -3 6 -6 -9 -9 -28 6 -22 17 4 5 8 9 11 9 3 0 2 -4 -1 -10z
m-575 -50 c0 -5 -2 -10 -4 -10 -3 0 -8 5 -11 10 -3 6 -1 10 4 10 6 0 11 -4 11
-10z m560 -4 c0 -2 -8 -10 -17 -17 -16 -13 -17 -12 -4 4 13 16 21 21 21 13z
m-522 -41 c-3 -3 -9 2 -12 12 -6 14 -5 15 5 6 7 -7 10 -15 7 -18z m-22 -4 c-3
-5 0 -14 8 -20 18 -15 9 -52 -11 -44 -8 3 -12 12 -9 19 3 7 1 16 -4 19 -11 7
-2 35 12 35 5 0 7 -4 4 -9z m492 -26 c-3 -3 -9 2 -12 12 -6 14 -5 15 5 6 7 -7
10 -15 7 -18z m-28 1 c0 -3 -4 -8 -10 -11 -5 -3 -10 -1 -10 4 0 6 5 11 10 11
6 0 10 -2 10 -4z m-36 -72 c5 -14 4 -15 -9 -4 -17 14 -19 20 -6 20 5 0 12 -7
15 -16z m-35 -28 c7 -8 8 -17 3 -20 -6 -3 -12 3 -15 14 -6 24 -4 25 12 6z
m-199 -21 c0 4 3 6 6 2 7 -7 -20 -37 -32 -37 -5 0 -3 5 4 12 8 8 8 17 1 32
-10 20 -10 20 5 2 9 -11 16 -16 16 -11z m41 -28 c-1 -12 -15 -9 -19 4 -3 6 1
10 8 8 6 -3 11 -8 11 -12z"/>
<path d="M570 1462 c0 -12 19 -26 26 -19 2 2 -2 10 -11 17 -9 8 -15 8 -15 2z"/>
<path d="M961 1336 c-7 -8 -8 -17 -3 -20 6 -3 13 1 16 10 9 23 2 28 -13 10z"/>
<path d="M912 1313 c2 -10 10 -17 17 -15 7 1 19 -2 26 -8 9 -7 16 -6 26 7 12
15 12 16 -3 11 -9 -4 -24 0 -35 7 -25 19 -35 18 -31 -2z"/>
<path d="M1300 1011 c0 -5 7 -12 16 -15 14 -5 15 -4 4 9 -14 17 -20 19 -20 6z"/>
<path d="M590 920 c0 -5 7 -10 15 -10 8 0 15 5 15 10 0 6 -7 10 -15 10 -8 0
-15 -4 -15 -10z"/>
<path d="M596 885 c4 -8 10 -12 15 -9 11 6 2 24 -11 24 -5 0 -7 -7 -4 -15z"/>
<path d="M970 559 c4 -26 0 -40 -9 -35 -5 3 -11 0 -14 -7 -9 -23 31 -14 42 9
7 17 6 26 -5 35 -13 11 -15 10 -14 -2z"/>
<path d="M719 227 c6 -8 7 -18 3 -22 -4 -5 -1 -5 6 -1 10 6 10 11 1 22 -6 8
-14 14 -16 14 -3 0 0 -6 6 -13z"/>
<path d="M850 1790 c-9 -6 -10 -10 -3 -10 6 0 15 5 18 10 8 12 4 12 -15 0z"/>
<path d="M1176 1767 c3 -10 9 -15 12 -12 3 3 0 11 -7 18 -10 9 -11 8 -5 -6z"/>
<path d="M756 1743 c-6 -14 -5 -15 5 -6 7 7 10 15 7 18 -3 3 -9 -2 -12 -12z"/>
<path d="M1146 1741 c-3 -5 0 -14 7 -19 10 -8 13 -6 14 9 2 19 -11 26 -21 10z"/>
<path d="M710 1726 c0 -2 7 -7 16 -10 8 -3 12 -2 9 4 -6 10 -25 14 -25 6z"/>
<path d="M1230 1719 c0 -5 5 -7 10 -4 6 3 10 8 10 11 0 2 -4 4 -10 4 -5 0 -10
-5 -10 -11z"/>
<path d="M1195 1700 c-3 -6 1 -7 9 -4 18 7 21 14 7 14 -6 0 -13 -4 -16 -10z"/>
<path d="M1209 1688 c0 -2 -2 -14 -5 -27 -3 -19 -2 -22 10 -12 10 9 16 8 25
-2 6 -8 7 -18 3 -22 -4 -5 -1 -5 6 -1 18 11 15 21 -13 36 -18 10 -22 16 -13
22 10 6 10 8 1 8 -7 0 -13 -1 -14 -2z"/>
<path d="M1240 1679 c0 -4 6 -9 13 -12 8 -3 14 0 14 7 0 7 -6 13 -14 13 -7 0
-13 -4 -13 -8z"/>
<path d="M636 1623 c-6 -14 -5 -15 5 -6 7 7 10 15 7 18 -3 3 -9 -2 -12 -12z"/>
<path d="M577 1573 c-10 -9 -9 -23 1 -23 5 0 9 7 9 15 0 17 -1 18 -10 8z"/>
<path d="M525 1480 c-3 -6 1 -7 9 -4 18 7 21 14 7 14 -6 0 -13 -4 -16 -10z"/>
<path d="M499 1468 c-6 -21 -5 -38 1 -38 5 0 8 9 7 20 -1 17 -5 26 -8 18z"/>
<path d="M450 1400 c0 -5 5 -10 10 -10 6 0 10 5 10 10 0 6 -4 10 -10 10 -5 0
-10 -4 -10 -10z"/>
<path d="M1576 1338 c3 -4 11 -5 19 -1 21 7 19 12 -4 10 -11 0 -18 -5 -15 -9z"/>
<path d="M1510 1321 c0 -6 5 -13 10 -16 6 -3 10 1 10 9 0 9 -4 16 -10 16 -5 0
-10 -4 -10 -9z"/>
<path d="M1656 1302 c-2 -4 -1 -14 4 -22 7 -11 9 -9 7 8 -1 24 -3 26 -11 14z"/>
<path d="M323 1293 c22 -6 22 -12 0 -29 -24 -17 -10 -29 16 -14 17 9 19 15 11
30 -6 11 -18 19 -28 19 -16 -1 -16 -2 1 -6z"/>
<path d="M1626 1261 c-3 -5 0 -14 7 -19 10 -8 13 -6 14 9 2 19 -11 26 -21 10z"/>
<path d="M1671 1216 c-9 -10 -8 -16 4 -26 8 -7 15 -9 15 -4 0 5 8 -3 17 -16
10 -14 18 -29 18 -35 0 -15 39 -14 66 1 13 7 20 13 16 14 -5 0 -17 -5 -27 -10
-15 -8 -22 -6 -32 12 -7 13 -11 27 -10 32 2 5 -4 3 -13 -4 -14 -12 -16 -12
-14 1 3 17 -10 49 -21 49 -4 0 -13 -6 -19 -14z m28 -10 c11 -14 6 -15 -27 -7
-4 1 8 21 12 21 2 0 9 -6 15 -14z"/>
<path d="M210 1200 c-9 -6 -10 -10 -3 -10 6 0 15 5 18 10 8 12 4 12 -15 0z"/>
<path d="M1775 1181 c-3 -5 -2 -12 3 -15 5 -3 9 1 9 9 0 17 -3 19 -12 6z"/>
<path d="M153 1155 c0 -8 4 -12 9 -9 5 3 6 10 3 15 -9 13 -12 11 -12 -6z"/>
<path d="M120 1070 c-8 -5 -12 -10 -8 -10 4 0 3 -11 -2 -24 -7 -19 -5 -30 11
-48 12 -14 18 -17 17 -8 -2 8 -10 20 -18 27 -11 9 -12 12 -2 13 7 0 10 4 7 10
-3 5 -1 19 5 30 12 23 11 24 -10 10z"/>
<path d="M1870 1019 c0 -5 5 -7 10 -4 6 3 10 8 10 11 0 2 -4 4 -10 4 -5 0 -10
-5 -10 -11z"/>
<path d="M54 978 c-3 -4 5 -5 17 -3 30 6 36 14 9 12 -12 -1 -24 -5 -26 -9z"/>
<path d="M90 956 c0 -8 4 -17 9 -21 6 -3 9 4 8 15 -1 23 -17 28 -17 6z"/>
<path d="M76 927 c3 -10 9 -15 12 -12 3 3 0 11 -7 18 -10 9 -11 8 -5 -6z"/>
<path d="M86 885 c-3 -8 -1 -15 4 -15 6 0 10 7 10 15 0 8 -2 15 -4 15 -2 0 -6
-7 -10 -15z"/>
<path d="M90 799 c0 -5 5 -7 10 -4 6 3 10 8 10 11 0 2 -4 4 -10 4 -5 0 -10 -5
-10 -11z"/>
<path d="M113 775 c0 -8 4 -12 9 -9 5 3 6 10 3 15 -9 13 -12 11 -12 -6z"/>
<path d="M1810 758 c0 -4 4 -8 9 -8 6 0 12 4 15 8 3 5 -1 9 -9 9 -8 0 -15 -4
-15 -9z"/>
<path d="M136 722 c-3 -5 1 -9 9 -9 8 0 12 4 9 9 -3 4 -7 8 -9 8 -2 0 -6 -4
-9 -8z"/>
<path d="M250 689 c0 -9 -10 -21 -22 -28 -22 -11 -6 -8 27 5 10 4 15 0 15 -11
0 -9 -4 -13 -10 -10 -6 4 -7 -1 -3 -11 4 -11 8 -13 11 -6 2 7 7 10 12 7 4 -3
13 2 20 10 7 8 10 16 6 16 -3 1 -10 2 -16 3 -5 0 -16 10 -24 21 -12 16 -15 17
-16 4z"/>
<path d="M1711 644 c0 -11 3 -14 6 -6 3 7 2 16 -1 19 -3 4 -6 -2 -5 -13z"/>
<path d="M281 593 c-10 -26 -10 -27 4 -9 8 11 15 23 15 28 0 15 -7 8 -19 -19z"/>
<path d="M1661 604 c0 -11 3 -14 6 -6 3 7 2 16 -1 19 -3 4 -6 -2 -5 -13z"/>
<path d="M430 541 c0 -7 -4 -9 -10 -6 -6 3 -7 -1 -3 -10 4 -13 8 -14 14 -4 4
8 11 11 14 7 3 -3 -1 -13 -10 -22 -9 -9 -12 -16 -8 -16 5 0 20 15 33 33 13 17
17 26 9 20 -12 -10 -18 -10 -27 -1 -9 9 -12 9 -12 -1z"/>
<path d="M373 526 c0 -8 7 -12 15 -8 10 3 13 1 8 -6 -3 -6 -2 -13 3 -16 5 -4
8 1 7 10 -3 21 -33 39 -33 20z"/>
<path d="M1487 520 c-14 -17 -14 -19 0 -25 9 -3 20 0 24 6 4 7 13 9 21 6 9 -3
15 1 15 9 0 8 -3 14 -6 15 -3 0 -13 2 -22 4 -9 1 -23 -5 -32 -15z m14 -13
c-10 -9 -11 -8 -5 6 3 10 9 15 12 12 3 -3 0 -11 -7 -18z"/>
<path d="M456 495 c-3 -10 0 -12 11 -8 12 5 14 3 8 -8 -8 -12 -6 -12 8 0 18
15 16 24 -8 27 -7 1 -16 -4 -19 -11z"/>
<path d="M430 476 c0 -3 9 -10 20 -16 11 -6 20 -8 20 -6 0 3 -9 10 -20 16 -11
6 -20 8 -20 6z"/>
<path d="M1450 442 c0 -5 7 -9 15 -9 8 0 12 4 9 9 -3 4 -9 8 -15 8 -5 0 -9 -4
-9 -8z"/>
<path d="M1427 407 c-3 -8 0 -14 7 -14 7 0 13 6 13 14 0 7 -4 13 -8 13 -4 0
-9 -6 -12 -13z"/>
<path d="M550 402 c0 -5 7 -9 15 -9 8 0 12 4 9 9 -3 4 -9 8 -15 8 -5 0 -9 -4
-9 -8z"/>
<path d="M496 373 c-6 -14 -5 -15 5 -6 7 7 10 15 7 18 -3 3 -9 -2 -12 -12z"/>
<path d="M1415 360 c-3 -5 -1 -10 4 -10 6 0 11 5 11 10 0 6 -2 10 -4 10 -3 0
-8 -4 -11 -10z"/>
<path d="M602 355 c4 -4 0 -14 -10 -21 -9 -7 -15 -14 -12 -17 3 -2 13 4 23 13
15 14 16 20 5 26 -7 4 -10 4 -6 -1z"/>
<path d="M555 331 c-3 -5 -2 -12 3 -15 5 -3 9 1 9 9 0 17 -3 19 -12 6z"/>
<path d="M1350 321 c0 -10 19 -25 25 -20 1 2 -3 10 -11 17 -8 7 -14 8 -14 3z"/>
<path d="M1349 263 c-13 -16 -12 -17 4 -4 16 13 21 21 13 21 -2 0 -10 -8 -17
-17z"/>
<path d="M1319 258 c-5 -18 -6 -38 -1 -34 7 8 12 36 6 36 -2 0 -4 -1 -5 -2z"/>
<path d="M754 166 c-10 -8 -16 -18 -11 -22 4 -4 7 -2 7 5 0 7 4 10 9 7 5 -3
11 1 15 9 7 19 5 19 -20 1z"/>
<path d="M1180 165 c-9 -11 -9 -15 -1 -15 7 0 10 -4 7 -8 -3 -5 1 -9 9 -9 8 0
15 4 15 9 0 4 -5 8 -11 8 -6 0 -9 7 -5 15 3 8 4 15 2 15 -2 0 -9 -7 -16 -15z"/>
<path d="M766 123 c-6 -14 -5 -15 5 -6 7 7 10 15 7 18 -3 3 -9 -2 -12 -12z"/>
<path d="M810 121 c0 -7 -4 -9 -10 -6 -5 3 -10 2 -10 -4 0 -5 4 -12 9 -15 10
-6 25 24 16 32 -3 3 -5 0 -5 -7z"/>
<path d="M830 120 c0 -5 4 -10 9 -10 6 0 8 -9 6 -20 -2 -11 0 -20 5 -20 15 0
18 25 5 43 -14 19 -25 22 -25 7z"/>
<path d="M1150 100 c0 -5 5 -10 11 -10 5 0 7 5 4 10 -3 6 -8 10 -11 10 -2 0
-4 -4 -4 -10z"/>
<path d="M815 60 c3 -5 8 -10 11 -10 2 0 4 5 4 10 0 6 -5 10 -11 10 -5 0 -7
-4 -4 -10z"/>
<path d="M1079 53 c-13 -16 -12 -17 4 -4 9 7 17 15 17 17 0 8 -8 3 -21 -13z"/>
<path d="M946 18 c7 -10 24 -10 24 0 0 5 -7 9 -15 9 -8 0 -12 -4 -9 -9z"/>
</g>
</svg>
